<?xml version="1.0" standalone="no"?>
<!DOCTYPE svg PUBLIC "-//W3C//DTD SVG 20010904//EN"
 "http://www.w3.org/TR/2001/REC-SVG-20010904/DTD/svg10.dtd">
<svg version="1.0" xmlns="http://www.w3.org/2000/svg"
 width="260.000000pt" height="194.000000pt" viewBox="0 0 260.000000 194.000000"
 preserveAspectRatio="xMidYMid meet">

<g transform="translate(0.000000,194.000000) scale(0.100000,-0.100000)"
fill="#000000" stroke="none">
<path d="M0 1731 l0 -210 27 -4 28 -4 -27 -2 -28 -1 0 -355 0 -355 183 -3 182
-2 -182 -3 -183 -2 0 -60 0 -60 193 -3 192 -2 -192 -3 -193 -2 0 -55 0 -55
323 -2 c177 -1 350 -3 385 -3 34 -1 62 0 62 2 0 4 -48 60 -71 82 -26 26 -91
161 -105 221 -17 71 -18 120 -1 121 6 0 3 4 -8 9 -18 8 -18 9 5 9 23 1 25 -3
28 -48 3 -57 33 -150 60 -189 11 -15 23 -37 26 -50 4 -12 21 -29 37 -37 16 -9
28 -19 26 -23 -7 -23 93 -103 121 -97 7 2 8 1 2 -2 -15 -7 -12 -23 3 -23 8 0
27 -11 43 -25 37 -32 90 -59 103 -51 5 3 11 1 13 -5 2 -7 13 -13 24 -14 91 -9
134 -32 134 -70 0 -24 -25 -41 -35 -25 -4 6 -15 10 -26 10 -10 0 -19 7 -19 15
0 12 -5 13 -17 7 -31 -16 -75 -24 -68 -12 3 5 1 10 -5 10 -15 0 -40 25 -40 40
0 7 -7 10 -15 7 -8 -4 -17 -2 -20 3 -12 19 -38 11 -32 -10 3 -10 -1 -24 -8
-30 -10 -8 -14 -4 -19 16 -5 18 -3 30 6 35 10 7 10 9 0 9 -7 0 -33 20 -59 45
-25 25 -50 45 -54 45 -5 0 -9 3 -9 8 0 4 -71 4 -157 0 -87 -3 -265 -6 -395 -7
-231 -1 -238 -2 -238 -21 0 -20 7 -20 337 -20 185 0 334 -3 330 -6 -6 -7 -133
-10 -444 -12 -179 -2 -223 -5 -223 -15 0 -11 50 -15 242 -20 133 -4 287 -7
344 -7 89 0 103 -2 107 -17 4 -17 5 -17 6 0 1 22 37 22 51 -1 10 -16 10 -16 8
2 -2 15 3 19 27 20 52 0 94 -14 88 -30 -7 -18 -23 -18 -23 -1 0 8 -7 14 -15
14 -8 0 -15 -5 -14 -11 4 -34 -1 -39 -19 -23 -10 10 -21 15 -23 13 -8 -8 -237
-16 -504 -16 l-275 -1 0 -25 0 -24 363 -1 c416 -1 413 -1 429 -17 14 -14 11
-15 -117 -12 -49 1 -221 -1 -382 -5 l-293 -8 0 -49 c0 -50 10 -68 43 -81 23
-8 17 -33 -7 -29 -9 2 -16 -4 -16 -13 0 -8 -4 -15 -10 -15 -5 0 -10 -20 -10
-45 l0 -45 1300 0 1300 0 0 605 0 605 -37 1 c-23 1 -29 3 -16 6 15 3 20 9 16
19 -4 10 2 17 16 21 21 5 21 7 21 344 l0 339 -1300 0 -1300 0 0 -209z m243
-28 c-7 -2 -19 -2 -25 0 -7 3 -2 5 12 5 14 0 19 -2 13 -5z m1434 1 c-3 -3 -12
-4 -19 -1 -8 3 -5 6 6 6 11 1 17 -2 13 -5z m-1470 -20 c-3 -3 -12 -4 -19 -1
-8 3 -5 6 6 6 11 1 17 -2 13 -5z m-14 -21 c-7 -2 -21 -2 -30 0 -10 3 -4 5 12
5 17 0 24 -2 18 -5z m1520 0 c-7 -2 -19 -2 -25 0 -7 3 -2 5 12 5 14 0 19 -2
13 -5z m-1556 -19 c-3 -3 -12 -4 -19 -1 -8 3 -5 6 6 6 11 1 17 -2 13 -5z m-54
-71 c-7 -2 -21 -2 -30 0 -10 3 -4 5 12 5 17 0 24 -2 18 -5z m1664 1 c-3 -3
-12 -4 -19 -1 -8 3 -5 6 6 6 11 1 17 -2 13 -5z m-1684 -21 c-7 -2 -21 -2 -30
0 -10 3 -4 5 12 5 17 0 24 -2 18 -5z m1694 1 c-3 -3 -12 -4 -19 -1 -8 3 -5 6
6 6 11 1 17 -2 13 -5z m-1714 -21 c-7 -2 -21 -2 -30 0 -10 3 -5 5 12 5 17 0
24 -2 18 -5z m1730 0 c-7 -2 -19 -2 -25 0 -7 3 -2 5 12 5 14 0 19 -2 13 -5z
m14 -19 c-3 -3 -12 -4 -19 -1 -8 3 -5 6 6 6 11 1 17 -2 13 -5z m-820 -20 c-3
-3 -12 -4 -19 -1 -8 3 -5 6 6 6 11 1 17 -2 13 -5z m830 0 c-3 -3 -12 -4 -19
-1 -8 3 -5 6 6 6 11 1 17 -2 13 -5z m-894 -21 c-7 -2 -21 -2 -30 0 -10 3 -4 5
12 5 17 0 24 -2 18 -5z m330 0 c-7 -2 -21 -2 -30 0 -10 3 -4 5 12 5 17 0 24
-2 18 -5z m574 1 c-3 -3 -12 -4 -19 -1 -8 3 -5 6 6 6 11 1 17 -2 13 -5z m-947
-24 c0 -5 -6 -10 -14 -10 -8 0 -18 5 -21 10 -3 6 3 10 14 10 12 0 21 -4 21
-10z m400 0 c0 -5 -2 -10 -4 -10 -3 0 -8 5 -11 10 -3 6 -1 10 4 10 6 0 11 -4
11 -10z m-440 -20 c0 -5 -7 -10 -16 -10 -8 0 -12 5 -9 10 3 6 10 10 16 10 5 0
9 -4 9 -10z m498 -10 c11 -18 10 -20 -9 -20 -11 0 -17 5 -14 10 3 6 1 10 -5
10 -6 0 -8 5 -5 10 9 15 19 12 33 -10z m497 10 c3 -5 1 -10 -4 -10 -6 0 -11 5
-11 10 0 6 2 10 4 10 3 0 8 -4 11 -10z m-1032 -27 c-7 -2 -19 -2 -25 0 -7 3
-2 5 12 5 14 0 19 -2 13 -5z m-20 -20 c-7 -2 -21 -2 -30 0 -10 3 -4 5 12 5 17
0 24 -2 18 -5z m580 0 c-7 -2 -19 -2 -25 0 -7 3 -2 5 12 5 14 0 19 -2 13 -5z
m490 0 c-7 -2 -19 -2 -25 0 -7 3 -2 5 12 5 14 0 19 -2 13 -5z m-1090 -20 c-7
-2 -21 -2 -30 0 -10 3 -4 5 12 5 17 0 24 -2 18 -5z m630 0 c-7 -2 -21 -2 -30
0 -10 3 -4 5 12 5 17 0 24 -2 18 -5z m454 1 c-3 -3 -12 -4 -19 -1 -8 3 -5 6 6
6 11 1 17 -2 13 -5z m-1104 -21 c-7 -2 -21 -2 -30 0 -10 3 -4 5 12 5 17 0 24
-2 18 -5z m660 0 c-7 -2 -21 -2 -30 0 -10 3 -4 5 12 5 17 0 24 -2 18 -5z m460
0 c-7 -2 -19 -2 -25 0 -7 3 -2 5 12 5 14 0 19 -2 13 -5z m-1150 -20 c-7 -2
-19 -2 -25 0 -7 3 -2 5 12 5 14 0 19 -2 13 -5z m435 0 c-10 -2 -26 -2 -35 0
-10 3 -2 5 17 5 19 0 27 -2 18 -5z m265 0 c-7 -2 -21 -2 -30 0 -10 3 -4 5 12
5 17 0 24 -2 18 -5z m450 0 c-7 -2 -19 -2 -25 0 -7 3 -2 5 12 5 14 0 19 -2 13
-5z m-1160 -20 c-7 -2 -19 -2 -25 0 -7 3 -2 5 12 5 14 0 19 -2 13 -5z m365 0
c-10 -2 -26 -2 -35 0 -10 3 -2 5 17 5 19 0 27 -2 18 -5z m160 0 c-10 -2 -26
-2 -35 0 -10 3 -2 5 17 5 19 0 27 -2 18 -5z m185 0 c-7 -2 -19 -2 -25 0 -7 3
-2 5 12 5 14 0 19 -2 13 -5z m450 0 c-7 -2 -19 -2 -25 0 -7 3 -2 5 12 5 14 0
19 -2 13 -5z m-850 -24 c-8 -8 -16 -8 -30 0 -16 9 -14 10 12 11 21 0 26 -3 18
-11z m253 2 c-3 -5 1 -12 10 -15 9 -4 14 -9 12 -12 -3 -3 -21 4 -39 15 l-34
21 28 0 c16 0 26 -4 23 -9z m161 -11 c1 -13 -4 -20 -15 -20 -11 0 -18 8 -18
20 0 12 7 20 16 20 9 0 16 -9 17 -20z m436 13 c-7 -2 -19 -2 -25 0 -7 3 -2 5
12 5 14 0 19 -2 13 -5z m-878 -23 c3 -5 -3 -10 -14 -10 -12 0 -21 5 -21 10 0
6 6 10 14 10 8 0 18 -4 21 -10z m877 -2 c-9 -9 -15 -9 -24 0 -9 9 -7 12 12 12
19 0 21 -3 12 -12z m-1199 -25 c-7 -2 -19 -2 -25 0 -7 3 -2 5 12 5 14 0 19 -2
13 -5z m300 0 c-7 -2 -21 -2 -30 0 -10 3 -4 5 12 5 17 0 24 -2 18 -5z m350 0
c-7 -2 -21 -2 -30 0 -10 3 -4 5 12 5 17 0 24 -2 18 -5z m120 0 c-7 -2 -21 -2
-30 0 -10 3 -4 5 12 5 17 0 24 -2 18 -5z m430 0 c-7 -2 -19 -2 -25 0 -7 3 -2
5 12 5 14 0 19 -2 13 -5z m-1210 -20 c-7 -2 -19 -2 -25 0 -7 3 -2 5 12 5 14 0
19 -2 13 -5z m295 0 c-10 -2 -26 -2 -35 0 -10 3 -2 5 17 5 19 0 27 -2 18 -5z
m380 0 c-10 -2 -26 -2 -35 0 -10 3 -2 5 17 5 19 0 27 -2 18 -5z m100 0 c-10
-2 -26 -2 -35 0 -10 3 -2 5 17 5 19 0 27 -2 18 -5z m435 0 c-7 -2 -19 -2 -25
0 -7 3 -2 5 12 5 14 0 19 -2 13 -5z m-1220 -20 c-7 -2 -19 -2 -25 0 -7 3 -2 5
12 5 14 0 19 -2 13 -5z m290 0 c-7 -2 -21 -2 -30 0 -10 3 -4 5 12 5 17 0 24
-2 18 -5z m405 0 c-10 -2 -26 -2 -35 0 -10 3 -2 5 17 5 19 0 27 -2 18 -5z m90
0 c-10 -2 -26 -2 -35 0 -10 3 -2 5 17 5 19 0 27 -2 18 -5z m435 0 c-7 -2 -19
-2 -25 0 -7 3 -2 5 12 5 14 0 19 -2 13 -5z m705 0 c-10 -2 -28 -2 -40 0 -13 2
-5 4 17 4 22 1 32 -1 23 -4z m-1935 -20 c-7 -2 -19 -2 -25 0 -7 3 -2 5 12 5
14 0 19 -2 13 -5z m290 0 c-7 -2 -21 -2 -30 0 -10 3 -4 5 12 5 17 0 24 -2 18
-5z m425 0 c-10 -2 -28 -2 -40 0 -13 2 -5 4 17 4 22 1 32 -1 23 -4z m70 0
c-10 -2 -26 -2 -35 0 -10 3 -2 5 17 5 19 0 27 -2 18 -5z m445 0 c-7 -2 -21 -2
-30 0 -10 3 -4 5 12 5 17 0 24 -2 18 -5z m685 0 c-10 -2 -26 -2 -35 0 -10 3
-2 5 17 5 19 0 27 -2 18 -5z m-1915 -20 c-7 -2 -21 -2 -30 0 -10 3 -4 5 12 5
17 0 24 -2 18 -5z m280 0 c-7 -2 -21 -2 -30 0 -10 3 -4 5 12 5 17 0 24 -2 18
-5z m474 0 c-20 -2 -52 -2 -70 0 -17 2 0 4 38 4 39 0 53 -2 32 -4z m466 0 c-7
-2 -21 -2 -30 0 -10 3 -4 5 12 5 17 0 24 -2 18 -5z m685 0 c-10 -2 -26 -2 -35
0 -10 3 -2 5 17 5 19 0 27 -2 18 -5z m-1915 -20 c-7 -2 -19 -2 -25 0 -7 3 -2
5 12 5 14 0 19 -2 13 -5z m276 -22 c-6 -16 -8 -43 -6 -60 5 -27 2 -31 -18 -31
-21 0 -23 4 -20 48 6 70 6 72 31 72 21 0 22 -2 13 -29z m489 22 c-15 -2 -42
-2 -60 0 -18 2 -6 4 27 4 33 0 48 -2 33 -4z m465 0 c-7 -2 -19 -2 -25 0 -7 3
-2 5 12 5 14 0 19 -2 13 -5z m670 0 c-7 -2 -21 -2 -30 0 -10 3 -4 5 12 5 17 0
24 -2 18 -5z m-1907 -43 c0 -16 -5 -30 -11 -30 -5 0 -3 -5 5 -10 12 -8 11 -10
-7 -10 -19 0 -23 5 -23 34 0 24 5 36 18 39 9 3 18 5 18 6 1 0 1 -12 0 -29z
m1220 3 c-4 -16 -7 -34 -8 -40 -1 -7 -11 -13 -22 -12 -13 0 -16 3 -7 6 11 5
11 7 0 14 -10 6 -11 9 -1 9 6 0 12 11 12 25 0 16 6 25 16 25 13 0 15 -6 10
-27z m674 22 c0 -18 -26 -55 -39 -55 -14 0 -14 -2 -1 -10 11 -7 6 -10 -20 -9
-29 0 -31 2 -15 9 11 5 16 9 12 9 -16 2 28 61 45 61 10 0 18 -2 18 -5z m-1167
-12 c-7 -2 -19 -2 -25 0 -7 3 -2 5 12 5 14 0 19 -2 13 -5z m-740 -80 c-7 -2
-19 -2 -25 0 -7 3 -2 5 12 5 14 0 19 -2 13 -5z m1220 0 c-7 -2 -21 -2 -30 0
-10 3 -4 5 12 5 17 0 24 -2 18 -5z m635 0 c-10 -2 -26 -2 -35 0 -10 3 -2 5 17
5 19 0 27 -2 18 -5z m-1855 -20 c-7 -2 -21 -2 -30 0 -10 3 -4 5 12 5 17 0 24
-2 18 -5z m290 0 c-7 -2 -21 -2 -30 0 -10 3 -4 5 12 5 17 0 24 -2 18 -5z m912
-1 c-5 -4 -11 -15 -13 -26 -4 -19 -11 -30 -50 -71 -13 -14 -20 -25 -17 -25 4
0 0 -7 -9 -15 -8 -8 -19 -15 -25 -15 -6 0 -11 -6 -11 -13 0 -8 -11 -19 -25
-25 -14 -6 -25 -16 -25 -22 0 -5 -7 -10 -15 -10 -8 0 -15 -4 -15 -10 0 -5 -9
-10 -19 -10 -11 0 -21 -4 -23 -10 -1 -5 -14 -11 -28 -12 -14 -2 -30 -9 -35
-16 -6 -7 -18 -10 -28 -6 -18 7 -23 24 -7 24 6 0 40 14 76 32 69 34 206 157
219 197 3 11 11 21 16 21 6 0 7 5 4 10 -3 6 4 10 17 10 13 0 19 -4 13 -8z
m638 1 c-7 -2 -21 -2 -30 0 -10 3 -4 5 12 5 17 0 24 -2 18 -5z m-1536 -19 c-4
-4 7 -33 24 -65 31 -58 118 -149 142 -149 7 0 18 -5 25 -12 6 -6 22 -13 34
-15 13 -2 25 -8 26 -13 2 -6 28 -10 57 -10 71 0 79 -16 13 -25 -42 -6 -54 -4
-63 9 -8 10 -23 15 -43 12 -17 -2 -29 1 -26 5 3 5 -4 9 -16 9 -11 0 -23 7 -26
15 -4 8 -12 15 -20 15 -8 0 -28 14 -46 30 -17 17 -34 30 -37 30 -4 0 -15 15
-26 33 -10 17 -22 34 -26 37 -8 6 -39 78 -39 91 0 5 12 9 27 9 14 0 23 -3 20
-6z m1527 -2 c-6 -4 -15 -17 -18 -30 -4 -12 -19 -34 -32 -47 -14 -14 -22 -25
-19 -25 5 0 -3 -12 -32 -45 -7 -7 -13 -16 -13 -20 0 -3 -10 -17 -22 -30 -38
-40 -48 -54 -48 -65 0 -6 -4 -8 -10 -5 -5 3 -10 2 -10 -4 0 -6 -21 -29 -47
-53 -25 -24 -64 -61 -85 -83 -22 -22 -44 -39 -49 -37 -5 1 -12 -5 -15 -13 -4
-8 -10 -15 -16 -15 -5 0 -21 -11 -36 -25 -15 -14 -32 -25 -38 -25 -7 0 -15 -7
-18 -16 -3 -9 -13 -14 -21 -10 -8 3 -17 1 -20 -4 -4 -6 -1 -10 6 -10 10 0 10
-3 0 -12 -11 -10 -14 -10 -18 0 -7 18 -23 15 -23 -4 0 -14 -3 -14 -15 -4 -11
9 -15 9 -15 1 0 -7 -4 -9 -10 -6 -5 3 -15 -3 -22 -14 -9 -14 -16 -17 -24 -10
-9 7 -19 4 -35 -12 -15 -15 -24 -18 -27 -11 -6 19 -42 14 -42 -5 0 -9 -3 -13
-7 -10 -3 4 -12 2 -20 -4 -9 -9 -13 -8 -13 0 0 6 -9 11 -20 11 -14 0 -20 7
-20 23 0 38 28 55 93 55 41 0 64 6 77 17 10 9 24 14 29 10 6 -3 11 -1 11 4 0
6 9 11 20 11 11 0 20 5 20 11 0 5 4 8 9 4 5 -3 12 -1 16 5 4 6 11 8 16 5 5 -4
9 -1 9 4 0 11 46 38 103 62 15 6 27 15 27 20 0 5 4 9 10 9 5 0 23 12 39 27 42
39 59 53 65 53 18 0 208 222 229 268 6 12 14 22 19 22 5 0 6 5 3 10 -3 6 1 10
10 10 9 0 13 5 10 10 -4 6 6 10 22 10 15 0 23 -4 17 -8z m-998 -263 c13 -21
-14 -31 -65 -24 -64 9 -66 23 -3 28 26 2 50 4 54 5 4 1 10 -3 14 -9z m-476
-183 c0 -2 -7 -7 -16 -10 -8 -3 -12 -2 -9 4 6 10 25 14 25 6z m370 -6 c0 -5
-4 -10 -9 -10 -6 0 -13 5 -16 10 -3 6 1 10 9 10 9 0 16 -4 16 -10z m53 -136
c-31 -26 -28 -28 47 -25 53 2 55 3 41 30 -10 17 -9 20 4 15 8 -4 22 -1 29 5
12 10 14 7 12 -13 -2 -15 1 -27 5 -27 5 -1 15 -2 22 -3 6 -1 11 -10 10 -21 -1
-10 3 -27 7 -36 13 -23 0 -32 -17 -11 -14 16 -14 16 -9 0 7 -22 -7 -23 -25 -2
-11 13 -31 15 -123 11 -61 -3 -123 -7 -138 -10 -16 -3 -30 -1 -34 4 -3 5 0 9
5 9 6 0 11 11 11 24 0 14 5 28 11 31 6 4 8 13 5 20 -3 8 4 17 16 21 16 5 26 0
41 -20 20 -27 50 -36 41 -12 -3 9 5 20 23 29 40 21 49 10 16 -19z m620 6 c-20
-23 -33 -26 -33 -6 0 14 14 24 37 25 9 1 7 -6 -4 -19z m-1048 -79 c3 -5 1 -12
-5 -16 -5 -3 -10 1 -10 9 0 18 6 21 15 7z m169 -16 c3 -8 1 -15 -4 -15 -6 0
-10 4 -10 9 0 5 -8 12 -17 14 -14 4 -13 5 3 6 12 0 24 -6 28 -14z"/>
<path d="M1270 380 c0 -5 5 -10 10 -10 6 0 10 5 10 10 0 6 -4 10 -10 10 -5 0
-10 -4 -10 -10z"/>
</g>
</svg>
